<svg xmlns="http://www.w3.org/2000/svg" xmlns:xlink="http://www.w3.org/1999/xlink" width="500" zoomAndPan="magnify" viewBox="0 0 375 374.999991" height="500" preserveAspectRatio="xMidYMid meet" version="1.0"><defs><clipPath id="d12fc924b2"><path d="M 10.75 10.75 L 364 10.75 L 364 364 L 10.75 364 Z M 10.75 10.75 " clip-rule="nonzero"/></clipPath></defs><g clip-path="url(#d12fc924b2)"><path fill="#156fff" d="M 364.246094 187.5 C 364.246094 190.390625 364.175781 193.28125 364.035156 196.171875 C 363.890625 199.0625 363.679688 201.945312 363.394531 204.824219 C 363.113281 207.703125 362.757812 210.570312 362.335938 213.433594 C 361.910156 216.292969 361.414062 219.144531 360.851562 221.980469 C 360.285156 224.816406 359.652344 227.640625 358.949219 230.445312 C 358.246094 233.25 357.476562 236.039062 356.636719 238.804688 C 355.796875 241.574219 354.890625 244.320312 353.914062 247.042969 C 352.941406 249.765625 351.898438 252.464844 350.792969 255.136719 C 349.6875 257.808594 348.515625 260.453125 347.277344 263.070312 C 346.039062 265.683594 344.742188 268.265625 343.378906 270.816406 C 342.011719 273.367188 340.589844 275.882812 339.101562 278.367188 C 337.613281 280.847656 336.066406 283.289062 334.460938 285.695312 C 332.851562 288.101562 331.1875 290.464844 329.464844 292.789062 C 327.742188 295.109375 325.960938 297.390625 324.128906 299.625 C 322.292969 301.863281 320.402344 304.050781 318.460938 306.195312 C 316.519531 308.339844 314.523438 310.433594 312.480469 312.480469 C 310.433594 314.523438 308.339844 316.519531 306.195312 318.460938 C 304.050781 320.402344 301.863281 322.292969 299.625 324.128906 C 297.390625 325.960938 295.109375 327.742188 292.789062 329.464844 C 290.464844 331.1875 288.101562 332.851562 285.695312 334.460938 C 283.289062 336.066406 280.847656 337.613281 278.367188 339.101562 C 275.882812 340.589844 273.367188 342.011719 270.816406 343.378906 C 268.265625 344.742188 265.683594 346.039062 263.070312 347.277344 C 260.453125 348.515625 257.808594 349.6875 255.136719 350.792969 C 252.464844 351.898438 249.765625 352.941406 247.042969 353.914062 C 244.320312 354.890625 241.574219 355.796875 238.804688 356.636719 C 236.039062 357.476562 233.25 358.246094 230.445312 358.949219 C 227.640625 359.652344 224.816406 360.285156 221.980469 360.851562 C 219.144531 361.414062 216.292969 361.910156 213.433594 362.335938 C 210.570312 362.757812 207.703125 363.113281 204.824219 363.394531 C 201.945312 363.679688 199.0625 363.890625 196.171875 364.035156 C 193.28125 364.175781 190.390625 364.246094 187.5 364.246094 C 184.605469 364.246094 181.714844 364.175781 178.828125 364.035156 C 175.9375 363.890625 173.054688 363.679688 170.175781 363.394531 C 167.296875 363.113281 164.425781 362.757812 161.566406 362.335938 C 158.703125 361.910156 155.855469 361.414062 153.015625 360.851562 C 150.179688 360.285156 147.359375 359.652344 144.554688 358.949219 C 141.746094 358.246094 138.960938 357.476562 136.191406 356.636719 C 133.425781 355.796875 130.679688 354.890625 127.953125 353.914062 C 125.230469 352.941406 122.53125 351.898438 119.859375 350.792969 C 117.1875 349.6875 114.542969 348.515625 111.929688 347.277344 C 109.316406 346.039062 106.730469 344.742188 104.179688 343.378906 C 101.628906 342.011719 99.113281 340.589844 96.632812 339.101562 C 94.152344 337.613281 91.707031 336.066406 89.304688 334.460938 C 86.898438 332.851562 84.535156 331.1875 82.210938 329.464844 C 79.886719 327.742188 77.609375 325.960938 75.371094 324.128906 C 73.136719 322.292969 70.945312 320.402344 68.800781 318.460938 C 66.660156 316.519531 64.566406 314.523438 62.519531 312.480469 C 60.472656 310.433594 58.480469 308.339844 56.539062 306.195312 C 54.59375 304.050781 52.707031 301.863281 50.871094 299.625 C 49.035156 297.390625 47.257812 295.109375 45.535156 292.789062 C 43.8125 290.464844 42.144531 288.101562 40.539062 285.695312 C 38.929688 283.289062 37.382812 280.847656 35.898438 278.367188 C 34.410156 275.882812 32.984375 273.367188 31.621094 270.816406 C 30.257812 268.265625 28.957031 265.683594 27.722656 263.070312 C 26.484375 260.453125 25.3125 257.808594 24.207031 255.136719 C 23.097656 252.464844 22.058594 249.765625 21.082031 247.042969 C 20.109375 244.320312 19.203125 241.574219 18.363281 238.804688 C 17.523438 236.039062 16.75 233.25 16.046875 230.445312 C 15.34375 227.640625 14.710938 224.816406 14.148438 221.980469 C 13.582031 219.144531 13.089844 216.292969 12.664062 213.433594 C 12.238281 210.570312 11.886719 207.703125 11.601562 204.824219 C 11.320312 201.945312 11.105469 199.0625 10.964844 196.171875 C 10.820312 193.28125 10.75 190.390625 10.75 187.5 C 10.75 184.605469 10.820312 181.714844 10.964844 178.828125 C 11.105469 175.9375 11.320312 173.054688 11.601562 170.175781 C 11.886719 167.296875 12.238281 164.425781 12.664062 161.566406 C 13.089844 158.703125 13.582031 155.855469 14.148438 153.015625 C 14.710938 150.179688 15.34375 147.359375 16.046875 144.554688 C 16.75 141.746094 17.523438 138.960938 18.363281 136.191406 C 19.203125 133.425781 20.109375 130.679688 21.082031 127.953125 C 22.058594 125.230469 23.097656 122.53125 24.207031 119.859375 C 25.3125 117.1875 26.484375 114.542969 27.722656 111.929688 C 28.957031 109.316406 30.257812 106.730469 31.621094 104.179688 C 32.984375 101.628906 34.410156 99.113281 35.898438 96.632812 C 37.382812 94.152344 38.929688 91.707031 40.539062 89.304688 C 42.144531 86.898438 43.8125 84.535156 45.535156 82.210938 C 47.257812 79.886719 49.035156 77.609375 50.871094 75.371094 C 52.707031 73.136719 54.59375 70.945312 56.539062 68.800781 C 58.480469 66.660156 60.472656 64.566406 62.519531 62.519531 C 64.566406 60.472656 66.660156 58.480469 68.800781 56.539062 C 70.945312 54.59375 73.136719 52.707031 75.371094 50.871094 C 77.609375 49.035156 79.886719 47.257812 82.210938 45.535156 C 84.535156 43.8125 86.898438 42.144531 89.304688 40.539062 C 91.707031 38.929688 94.152344 37.382812 96.632812 35.898438 C 99.113281 34.410156 101.628906 32.984375 104.179688 31.621094 C 106.730469 30.257812 109.316406 28.957031 111.929688 27.722656 C 114.542969 26.484375 117.1875 25.3125 119.859375 24.207031 C 122.53125 23.097656 125.230469 22.058594 127.953125 21.082031 C 130.679688 20.109375 133.425781 19.203125 136.191406 18.363281 C 138.960938 17.523438 141.746094 16.75 144.554688 16.046875 C 147.359375 15.34375 150.179688 14.710938 153.015625 14.148438 C 155.855469 13.582031 158.703125 13.089844 161.566406 12.664062 C 164.425781 12.238281 167.296875 11.886719 170.175781 11.601562 C 173.054688 11.320312 175.9375 11.105469 178.828125 10.964844 C 181.714844 10.820312 184.605469 10.75 187.5 10.75 C 190.390625 10.75 193.28125 10.820312 196.171875 10.964844 C 199.0625 11.105469 201.945312 11.320312 204.824219 11.601562 C 207.703125 11.886719 210.570312 12.238281 213.433594 12.664062 C 216.292969 13.089844 219.144531 13.582031 221.980469 14.148438 C 224.816406 14.710938 227.640625 15.34375 230.445312 16.046875 C 233.25 16.75 236.039062 17.523438 238.804688 18.363281 C 241.574219 19.203125 244.320312 20.109375 247.042969 21.082031 C 249.765625 22.058594 252.464844 23.097656 255.136719 24.207031 C 257.808594 25.3125 260.453125 26.484375 263.070312 27.722656 C 265.683594 28.957031 268.265625 30.257812 270.816406 31.621094 C 273.367188 32.984375 275.882812 34.410156 278.367188 35.898438 C 280.847656 37.382812 283.289062 38.929688 285.695312 40.539062 C 288.101562 42.144531 290.464844 43.8125 292.789062 45.535156 C 295.109375 47.257812 297.390625 49.035156 299.625 50.871094 C 301.863281 52.707031 304.050781 54.59375 306.195312 56.539062 C 308.339844 58.480469 310.433594 60.472656 312.480469 62.519531 C 314.523438 64.566406 316.519531 66.660156 318.460938 68.800781 C 320.402344 70.945312 322.292969 73.136719 324.128906 75.371094 C 325.960938 77.609375 327.742188 79.886719 329.464844 82.210938 C 331.1875 84.535156 332.851562 86.898438 334.460938 89.304688 C 336.066406 91.707031 337.613281 94.152344 339.101562 96.632812 C 340.589844 99.113281 342.011719 101.628906 343.378906 104.179688 C 344.742188 106.730469 346.039062 109.316406 347.277344 111.929688 C 348.515625 114.542969 349.6875 117.1875 350.792969 119.859375 C 351.898438 122.53125 352.941406 125.230469 353.914062 127.953125 C 354.890625 130.679688 355.796875 133.425781 356.636719 136.191406 C 357.476562 138.960938 358.246094 141.746094 358.949219 144.554688 C 359.652344 147.359375 360.285156 150.179688 360.851562 153.015625 C 361.414062 155.855469 361.910156 158.703125 362.335938 161.566406 C 362.757812 164.425781 363.113281 167.296875 363.394531 170.175781 C 363.679688 173.054688 363.890625 175.9375 364.035156 178.828125 C 364.175781 181.714844 364.246094 184.605469 364.246094 187.5 Z M 364.246094 187.5 " fill-opacity="1" fill-rule="nonzero"/></g><path fill="#ffffff" d="M 260.996094 279.59375 C 260.554688 277.835938 249.527344 236.597656 187.5 236.597656 C 125.460938 236.597656 114.441406 277.835938 114 279.59375 C 113.460938 281.726562 114.421875 283.933594 116.328125 285.035156 C 118.242188 286.125 120.640625 285.800781 122.21875 284.277344 C 122.40625 284.09375 141.40625 266.054688 187.5 266.054688 C 233.589844 266.054688 252.601562 284.09375 252.777344 284.269531 C 253.722656 285.203125 254.976562 285.691406 256.234375 285.691406 C 257.058594 285.691406 257.894531 285.488281 258.648438 285.0625 C 260.574219 283.964844 261.535156 281.734375 260.996094 279.59375 Z M 260.996094 279.59375 " fill-opacity="1" fill-rule="nonzero"/><path fill="#ffffff" d="M 153.132812 143.3125 C 153.132812 144.4375 153.09375 145.5625 153.011719 146.679688 C 152.933594 147.800781 152.816406 148.914062 152.660156 150.015625 C 152.503906 151.121094 152.308594 152.210938 152.074219 153.289062 C 151.839844 154.367188 151.570312 155.425781 151.261719 156.464844 C 150.957031 157.503906 150.613281 158.519531 150.234375 159.511719 C 149.855469 160.503906 149.441406 161.46875 148.996094 162.40625 C 148.546875 163.339844 148.070312 164.246094 147.558594 165.113281 C 147.050781 165.984375 146.511719 166.816406 145.941406 167.613281 C 145.371094 168.410156 144.777344 169.164062 144.15625 169.878906 C 143.535156 170.59375 142.890625 171.261719 142.222656 171.886719 C 141.554688 172.511719 140.863281 173.089844 140.15625 173.621094 C 139.445312 174.152344 138.71875 174.632812 137.976562 175.0625 C 137.234375 175.496094 136.480469 175.875 135.710938 176.199219 C 134.941406 176.527344 134.160156 176.800781 133.371094 177.019531 C 132.582031 177.238281 131.789062 177.402344 130.988281 177.515625 C 130.1875 177.625 129.386719 177.679688 128.582031 177.679688 C 127.777344 177.679688 126.976562 177.625 126.175781 177.515625 C 125.375 177.402344 124.582031 177.238281 123.792969 177.019531 C 123.003906 176.800781 122.226562 176.527344 121.457031 176.199219 C 120.6875 175.875 119.933594 175.496094 119.1875 175.0625 C 118.445312 174.632812 117.71875 174.152344 117.011719 173.621094 C 116.300781 173.089844 115.613281 172.511719 114.945312 171.886719 C 114.277344 171.261719 113.632812 170.59375 113.011719 169.878906 C 112.386719 169.164062 111.792969 168.410156 111.226562 167.613281 C 110.65625 166.816406 110.117188 165.984375 109.605469 165.113281 C 109.097656 164.246094 108.617188 163.339844 108.171875 162.40625 C 107.726562 161.46875 107.3125 160.503906 106.933594 159.511719 C 106.554688 158.519531 106.210938 157.503906 105.902344 156.464844 C 105.597656 155.425781 105.324219 154.367188 105.09375 153.289062 C 104.859375 152.210938 104.664062 151.121094 104.507812 150.015625 C 104.351562 148.914062 104.230469 147.800781 104.152344 146.679688 C 104.074219 145.5625 104.035156 144.4375 104.035156 143.3125 C 104.035156 142.1875 104.074219 141.0625 104.152344 139.945312 C 104.230469 138.824219 104.351562 137.710938 104.507812 136.605469 C 104.664062 135.503906 104.859375 134.414062 105.09375 133.335938 C 105.324219 132.257812 105.597656 131.199219 105.902344 130.160156 C 106.210938 129.121094 106.554688 128.105469 106.933594 127.113281 C 107.3125 126.117188 107.726562 125.15625 108.171875 124.21875 C 108.617188 123.28125 109.097656 122.378906 109.605469 121.507812 C 110.117188 120.640625 110.65625 119.804688 111.226562 119.011719 C 111.792969 118.214844 112.386719 117.460938 113.011719 116.746094 C 113.632812 116.03125 114.277344 115.363281 114.945312 114.738281 C 115.613281 114.109375 116.300781 113.53125 117.011719 113.003906 C 117.71875 112.472656 118.445312 111.992188 119.1875 111.5625 C 119.933594 111.128906 120.6875 110.75 121.457031 110.425781 C 122.226562 110.097656 123.003906 109.824219 123.792969 109.605469 C 124.582031 109.386719 125.375 109.21875 126.175781 109.109375 C 126.976562 109 127.777344 108.945312 128.582031 108.945312 C 129.386719 108.945312 130.1875 109 130.988281 109.109375 C 131.789062 109.21875 132.582031 109.386719 133.371094 109.605469 C 134.160156 109.824219 134.941406 110.097656 135.710938 110.425781 C 136.480469 110.75 137.234375 111.128906 137.976562 111.5625 C 138.71875 111.992188 139.445312 112.472656 140.15625 113.003906 C 140.863281 113.53125 141.554688 114.109375 142.222656 114.738281 C 142.890625 115.363281 143.535156 116.03125 144.15625 116.746094 C 144.777344 117.460938 145.371094 118.214844 145.941406 119.011719 C 146.511719 119.804688 147.050781 120.640625 147.558594 121.507812 C 148.070312 122.378906 148.546875 123.28125 148.996094 124.21875 C 149.441406 125.15625 149.855469 126.117188 150.234375 127.113281 C 150.613281 128.105469 150.957031 129.121094 151.261719 130.160156 C 151.570312 131.199219 151.839844 132.257812 152.074219 133.335938 C 152.308594 134.414062 152.503906 135.503906 152.660156 136.605469 C 152.816406 137.710938 152.933594 138.824219 153.011719 139.945312 C 153.09375 141.0625 153.132812 142.1875 153.132812 143.3125 Z M 153.132812 143.3125 " fill-opacity="1" fill-rule="nonzero"/><path fill="#ffffff" d="M 270.964844 143.3125 C 270.964844 144.4375 270.925781 145.5625 270.84375 146.679688 C 270.765625 147.800781 270.648438 148.914062 270.492188 150.015625 C 270.335938 151.121094 270.140625 152.210938 269.90625 153.289062 C 269.671875 154.367188 269.402344 155.425781 269.09375 156.464844 C 268.789062 157.503906 268.445312 158.519531 268.066406 159.511719 C 267.6875 160.503906 267.273438 161.46875 266.828125 162.40625 C 266.378906 163.339844 265.902344 164.246094 265.390625 165.113281 C 264.882812 165.984375 264.34375 166.816406 263.773438 167.613281 C 263.203125 168.410156 262.609375 169.164062 261.988281 169.878906 C 261.367188 170.59375 260.722656 171.261719 260.054688 171.886719 C 259.386719 172.511719 258.695312 173.089844 257.988281 173.621094 C 257.277344 174.152344 256.550781 174.632812 255.808594 175.0625 C 255.066406 175.496094 254.308594 175.875 253.542969 176.199219 C 252.773438 176.527344 251.992188 176.800781 251.203125 177.019531 C 250.414062 177.238281 249.621094 177.402344 248.820312 177.515625 C 248.019531 177.625 247.21875 177.679688 246.414062 177.679688 C 245.609375 177.679688 244.808594 177.625 244.007812 177.515625 C 243.207031 177.402344 242.414062 177.238281 241.625 177.019531 C 240.835938 176.800781 240.058594 176.527344 239.289062 176.199219 C 238.519531 175.875 237.765625 175.496094 237.019531 175.0625 C 236.277344 174.632812 235.550781 174.152344 234.84375 173.621094 C 234.132812 173.089844 233.445312 172.511719 232.777344 171.886719 C 232.109375 171.261719 231.464844 170.59375 230.84375 169.878906 C 230.21875 169.164062 229.625 168.410156 229.058594 167.613281 C 228.488281 166.816406 227.949219 165.984375 227.4375 165.113281 C 226.929688 164.246094 226.449219 163.339844 226.003906 162.40625 C 225.558594 161.46875 225.144531 160.503906 224.765625 159.511719 C 224.386719 158.519531 224.042969 157.503906 223.734375 156.464844 C 223.429688 155.425781 223.15625 154.367188 222.925781 153.289062 C 222.691406 152.210938 222.496094 151.121094 222.339844 150.015625 C 222.183594 148.914062 222.0625 147.800781 221.984375 146.679688 C 221.90625 145.5625 221.867188 144.4375 221.867188 143.3125 C 221.867188 142.1875 221.90625 141.0625 221.984375 139.945312 C 222.0625 138.824219 222.183594 137.710938 222.339844 136.605469 C 222.496094 135.503906 222.691406 134.414062 222.925781 133.335938 C 223.15625 132.257812 223.429688 131.199219 223.734375 130.160156 C 224.042969 129.121094 224.386719 128.105469 224.765625 127.113281 C 225.144531 126.117188 225.558594 125.15625 226.003906 124.21875 C 226.449219 123.28125 226.929688 122.378906 227.4375 121.507812 C 227.949219 120.640625 228.488281 119.804688 229.058594 119.011719 C 229.625 118.214844 230.21875 117.460938 230.84375 116.746094 C 231.464844 116.03125 232.109375 115.363281 232.777344 114.738281 C 233.445312 114.109375 234.132812 113.53125 234.84375 113.003906 C 235.550781 112.472656 236.277344 111.992188 237.019531 111.5625 C 237.765625 111.128906 238.519531 110.75 239.289062 110.425781 C 240.058594 110.097656 240.835938 109.824219 241.625 109.605469 C 242.414062 109.386719 243.207031 109.21875 244.007812 109.109375 C 244.808594 109 245.609375 108.945312 246.414062 108.945312 C 247.21875 108.945312 248.019531 109 248.820312 109.109375 C 249.621094 109.21875 250.414062 109.386719 251.203125 109.605469 C 251.992188 109.824219 252.773438 110.097656 253.542969 110.425781 C 254.308594 110.75 255.066406 111.128906 255.808594 111.5625 C 256.550781 111.992188 257.277344 112.472656 257.988281 113.003906 C 258.695312 113.53125 259.386719 114.109375 260.054688 114.738281 C 260.722656 115.363281 261.367188 116.03125 261.988281 116.746094 C 262.609375 117.460938 263.203125 118.214844 263.773438 119.011719 C 264.34375 119.804688 264.882812 120.640625 265.390625 121.507812 C 265.902344 122.378906 266.378906 123.28125 266.828125 124.21875 C 267.273438 125.15625 267.6875 126.117188 268.066406 127.113281 C 268.445312 128.105469 268.789062 129.121094 269.09375 130.160156 C 269.402344 131.199219 269.671875 132.257812 269.90625 133.335938 C 270.140625 134.414062 270.335938 135.503906 270.492188 136.605469 C 270.648438 137.710938 270.765625 138.824219 270.84375 139.945312 C 270.925781 141.0625 270.964844 142.1875 270.964844 143.3125 Z M 270.964844 143.3125 " fill-opacity="1" fill-rule="nonzero"/></svg>